<svg width="1200" height="1200" viewBox="0 0 1200 1200" fill="none" xmlns="http://www.w3.org/2000/svg">
<mask id="mask0_118_1491" style="mask-type:alpha" maskUnits="userSpaceOnUse" x="0" y="0" width="1197" height="1197">
<circle cx="598.033" cy="598.033" r="598.033" fill="#D9D9D9"/>
</mask>
<g mask="url(#mask0_118_1491)">
<path d="M925.883 1091.76C923.138 1093.73 920.001 1095.69 917.255 1097.65C914.118 1099.61 911.373 1101.57 908.236 1103.14C905.491 1104.71 903.138 1106.27 900.393 1107.84C900.001 1108.24 899.608 1108.24 899.216 1108.63C890.197 1114.12 880.785 1119.22 871.373 1123.92C868.628 1125.49 865.491 1127.06 862.746 1128.24C862.746 1128.24 862.353 1128.63 861.961 1128.63C858.824 1130.2 855.687 1131.77 852.55 1133.33C846.275 1136.47 839.608 1139.22 833.334 1141.96C830.197 1143.53 826.667 1144.71 823.53 1145.88C820.393 1147.06 816.863 1148.63 813.726 1149.8C810.589 1150.98 807.059 1152.55 803.922 1153.73C803.922 1153.73 803.922 1153.73 803.53 1153.73C800.393 1154.9 796.863 1156.08 793.726 1157.26C786.667 1159.61 779.216 1161.96 772.157 1164.31C769.804 1165.1 767.059 1165.88 764.706 1166.67C757.255 1169.02 749.804 1170.98 742.353 1172.55C739.608 1173.33 736.863 1173.73 733.726 1174.51C726.667 1176.08 719.216 1177.65 712.157 1179.22C710.589 1179.61 709.412 1179.61 707.844 1180C705.491 1180.39 702.746 1180.78 700.393 1181.18C696.863 1181.57 693.726 1182.35 690.197 1182.75C688.628 1183.14 687.059 1183.14 685.491 1183.53C683.53 1183.92 681.177 1184.31 678.824 1184.31C672.55 1185.1 665.883 1185.88 659.608 1186.67C657.648 1187.06 655.295 1187.06 653.334 1187.45H652.942C650.197 1187.84 647.452 1187.84 644.706 1188.24C641.961 1188.63 639.216 1188.63 636.471 1188.63C634.903 1188.63 632.942 1189.02 631.373 1189.02C628.236 1189.02 625.491 1189.41 622.746 1189.41C618.824 1189.41 615.295 1189.8 611.373 1189.8C607.452 1189.8 603.922 1189.8 600.001 1189.8C597.255 1189.8 594.51 1189.8 591.765 1189.8C426.275 1187.45 277.648 1117.26 171.373 1005.88C171.373 1005.88 171.373 1005.49 170.981 1005.49C159.216 994.902 169.412 938.432 216.863 902.745C276.471 857.647 419.216 829.412 419.216 829.412C419.216 829.412 474.51 820.392 679.608 863.138C799.608 888.236 890.981 924.706 941.961 1023.53C952.55 1043.92 963.138 1075.29 925.883 1091.76Z" fill="white"/>
<path d="M680.785 858.824C756.079 874.118 836.471 890.588 898.432 940.392C919.216 957.255 932.942 981.961 944.314 1005.88C949.804 1017.65 955.295 1029.8 959.608 1042.75C961.961 1051.37 965.491 1061.18 963.53 1071.37C963.138 1074.12 960.785 1077.65 958.824 1079.61C949.804 1088.63 940.001 1094.12 930.197 1101.18C872.55 1141.18 806.275 1169.41 737.648 1184.31C584.706 1217.65 419.216 1191.76 284.706 1111.37C240.001 1084.31 198.824 1051.37 163.53 1012.55C159.608 1007.84 159.608 1000 159.608 994.902C160.001 983.137 163.138 971.765 167.059 961.177C176.471 936.863 188.628 912.549 209.412 895.686C224.314 885.49 240.393 876.863 256.863 869.804C308.628 847.843 363.138 832.549 419.216 826.275C423.922 825.883 424.706 832.549 420.001 833.334C366.275 844.314 312.942 860.784 263.138 883.137C245.099 892.157 225.883 900 211.373 914.118C197.648 929.02 187.844 947.451 180.001 966.275C174.903 977.647 171.373 995.687 172.942 1004.71C197.648 1034.12 226.667 1060 258.04 1082.35C429.804 1202.35 690.589 1210.2 873.334 1110.2C889.804 1101.18 905.883 1090.98 921.177 1080.39C928.628 1075.29 936.471 1070.98 942.353 1065.1C942.746 1064.71 942.353 1065.1 942.353 1065.49C942.353 1065.88 941.961 1066.27 941.961 1066.27C942.353 1061.57 940.785 1055.29 938.824 1049.02C931.765 1026.27 920.393 1002.35 908.236 981.569C889.02 950.588 856.471 930.981 823.53 915.294C800.785 904.706 776.863 896.471 752.55 888.628C728.236 880.785 703.53 874.118 678.824 868.235C672.55 866.667 674.51 857.647 680.785 858.824Z" fill="black"/>
<path d="M1056.08 1334.9H64.3164C64.3164 1334.9 122.748 1211.77 148.63 1071.37C166.669 974.118 180.003 917.256 230.591 885.883C266.277 863.922 342.748 841.177 375.689 829.413C398.042 821.569 402.748 828.236 418.826 823.922C418.826 825.883 419.218 827.452 419.218 829.413C419.218 829.413 461.571 955.295 571.767 1000C661.571 1036.47 714.905 1012.16 723.14 971.765C728.238 945.883 712.16 903.53 703.924 889.805C699.218 885.883 696.081 880.001 694.512 874.118L691.375 861.177C698.826 859.609 705.885 857.648 712.944 855.295C715.297 854.511 717.258 853.726 719.611 852.942C764.709 864.707 861.179 902.746 903.924 941.962C920.787 957.648 960.787 1036.08 986.669 1149.8C1016.47 1278.82 1056.08 1334.9 1056.08 1334.9Z" fill="black"/>
<path d="M1065.1 1339.61C769.805 1341.57 355.295 1346.27 64.7071 1345.1C57.6482 1345.1 52.5502 1337.25 55.6875 1330.98C90.5894 1254.12 118.04 1172.16 135.687 1089.41C137.648 1078.82 141.962 1058.04 143.923 1047.45C152.942 1004.31 160.001 961.569 183.138 921.961C190.982 909.019 201.178 896.863 213.335 887.059C225.099 877.647 238.825 870.588 252.55 864.314C296.472 845.49 340.786 830.588 385.884 816.863C396.472 814.51 407.06 817.255 417.256 814.902C423.138 813.333 429.413 817.647 429.805 823.921L430.197 829.412L419.609 819.608C423.923 819.608 427.844 822.353 429.021 826.274C432.158 835.294 436.472 844.706 440.786 853.725C454.119 880.784 470.589 906.274 490.589 928.627C516.864 958.431 549.805 981.961 587.452 995.294C625.491 1009.41 693.335 1021.57 712.158 976.078C715.295 967.843 714.903 959.216 713.727 950.196C710.982 931.765 704.707 912.157 695.687 895.686L697.648 898.039C691.374 889.804 689.021 880 689.805 870.588V862.353V861.176C689.805 860.392 690.589 859.608 691.374 859.608C696.08 858.039 700.393 856.078 705.099 854.51C709.413 852.549 713.727 850.588 718.04 848.235C719.217 847.451 720.393 847.843 721.57 848.235C747.452 854.902 772.158 863.921 796.864 874.117C833.727 889.412 870.197 906.667 901.962 931.372C913.335 939.608 921.57 951.765 928.236 963.921C941.57 987.451 952.158 1011.76 961.57 1036.47C978.04 1079.61 990.197 1124.31 1000.79 1169.41C1014.12 1219.22 1030.2 1268.63 1054.9 1314.12C1057.65 1318.82 1060.39 1323.53 1063.14 1328.24L1063.92 1329.02V1329.41C1066.28 1331.37 1066.67 1336.86 1065.1 1339.61ZM1047.06 1330.2C1045.1 1332.16 1045.49 1337.65 1047.06 1339.61V1339.22L1046.28 1338.04C1018.82 1292.94 1001.57 1242.35 987.452 1191.76C980.393 1167.06 975.295 1140.39 968.236 1115.29C954.511 1065.88 937.648 1016.08 912.942 970.98C908.629 963.529 903.923 955.294 898.04 949.412C886.668 938.823 873.335 930.196 860.001 921.961C838.04 909.019 814.511 897.647 790.589 887.843C766.668 878.039 742.354 869.019 717.648 862.353L723.531 861.961C712.942 862.745 702.746 863.137 692.55 862.745L694.119 860.392C696.472 864.314 699.217 870.98 701.57 874.51C704.315 878.039 707.452 880.784 710.982 882.353C711.766 883.137 712.55 883.921 712.942 884.706C727.06 911.765 741.178 952.157 730.982 982.353C707.452 1041.57 628.629 1032.16 580.393 1013.73C540.001 1000 503.531 973.725 475.295 941.569C447.06 909.412 424.707 872.549 409.805 832.549L419.217 839.216C413.727 839.216 409.413 835.294 409.021 829.804L408.629 824.706L421.178 833.725C417.256 834.902 412.55 835.294 408.236 835.686C397.256 835.294 389.805 834.902 379.609 838.823C366.276 843.529 352.55 848.235 338.825 852.549C311.766 861.568 285.099 870.98 259.609 882.353C201.57 905.49 184.707 951.765 171.374 1009.41C165.099 1036.08 160.001 1066.27 154.511 1093.33C136.472 1178.04 109.021 1260 73.3345 1339.22L64.3149 1324.71C348.629 1324.71 758.825 1327.45 1047.06 1330.2Z" fill="black"/>
<path d="M538.04 1041.18C402.746 980.392 350.197 871.765 360.393 842.353C360.393 842.353 360.393 841.961 360.785 841.569C367.844 827.059 379.217 815.294 393.334 807.059C401.178 802.353 409.805 798.039 416.864 795.686C523.923 769.019 665.883 814.118 713.727 855.294C730.981 876.078 748.629 896.863 755.295 951.765C764.707 1030.98 678.04 1104.31 538.04 1041.18Z" fill="white"/>
<path d="M536.079 1045.49C468.236 1014.9 404.707 967.059 368.629 900.784C361.57 887.059 355.295 872.941 353.334 856.863C352.942 851.373 352.55 844.706 355.295 839.216C363.531 822.745 378.432 809.804 394.903 801.961C407.452 795.294 421.178 790.588 434.903 786.274C454.511 782.745 474.119 781.569 494.119 781.961C559.609 783.922 624.707 801.176 682.746 831.373C687.06 833.725 691.374 836.078 695.687 838.823C697.256 839.608 698.432 840.784 700.393 840.392C702.354 840 703.923 840.784 705.491 841.569C710.197 844.314 714.119 847.843 718.432 851.765C729.021 864.706 739.609 878.431 746.668 894.118C753.727 909.804 757.648 926.667 760.001 943.137C766.276 976.863 754.903 1014.51 728.629 1037.65C675.295 1085.49 595.295 1072.55 536.079 1045.49ZM539.609 1037.25C583.53 1056.47 633.727 1068.63 680.393 1053.73C718.04 1042.35 749.021 1008.24 750.197 968.235C750.589 944.706 745.099 920 735.687 898.431C730.589 885.098 716.472 868.235 709.413 859.608C705.099 856.078 700.393 853.333 696.472 849.804C696.08 849.02 695.687 848.235 695.295 847.451C694.511 845.49 692.942 845.098 691.766 843.922C687.844 841.569 683.53 839.216 679.217 836.863C645.099 819.216 607.452 809.02 569.805 801.569C525.883 793.333 480.785 790.98 436.472 797.255C430.197 798.039 423.531 797.255 417.256 798.823C412.55 800.784 403.923 804.706 398.432 808.627C384.315 816.863 373.727 829.02 366.276 843.529L365.883 843.922C365.883 844.314 365.491 845.098 365.491 845.49C363.53 861.961 371.374 878.823 378.825 894.118C385.491 906.667 393.334 918.823 402.354 930.588C438.432 977.255 486.668 1013.33 539.609 1037.25Z" fill="black"/>
<path d="M717.644 963.137C709.409 1003.53 656.076 1027.84 566.272 991.373C472.938 953.726 432.546 863.922 422.35 837.255C477.644 733.726 439.213 661.961 439.213 661.961C566.664 650.98 678.036 800 678.036 800L695.291 873.726C696.86 880 699.997 885.49 704.703 889.412C712.938 903.922 722.742 937.255 717.644 963.137Z" fill="white"/>
<path d="M420.391 838.432C427.842 827.059 432.548 813.726 435.685 800.784C441.568 773.726 443.529 746.275 443.921 718.824V708.628C442.744 698.432 439.215 687.843 435.293 678.432C430.195 665.883 448.627 658.039 454.509 670.588C455.293 672.157 455.293 674.902 455.293 676.471C456.47 729.804 458.823 798.432 425.097 842.745C422.744 845.098 418.038 841.569 420.391 838.432Z" fill="black"/>
<path d="M682.351 799.216C688.233 802.746 690.194 807.451 690.978 812.157C693.331 821.569 692.547 831.765 694.9 841.569C696.861 850.981 702.743 860 704.312 869.804C706.272 880 712.155 901.569 714.508 912.157C715.292 914.51 713.723 917.255 710.978 917.647C709.41 918.04 708.233 917.647 707.057 916.863C701.959 912.549 699.606 908.236 696.469 902.746C691.371 893.334 687.841 884.706 684.704 874.118C681.959 864.706 683.135 854.51 680.782 844.706C678.821 835.295 673.331 826.275 671.37 816.471C670.194 811.765 669.802 806.667 673.331 800.785C675.684 798.432 679.606 797.647 682.351 799.216Z" fill="black"/>
<path d="M710.587 902.745C635.685 898.824 574.509 875.294 514.901 769.02C565.097 813.333 624.313 830.196 686.666 838.039L694.901 874.118C696.47 880.392 705.881 898.824 710.587 902.745Z" fill="black"/>
<path d="M707.452 888.236C720.785 913.334 728.628 944.706 720.393 972.549C714.118 992.157 696.079 1006.67 676.471 1012.16C630.981 1024.31 578.432 1005.1 538.04 983.53C488.236 955.687 451.373 909.02 427.844 858.04C426.275 854.118 431.765 850.981 434.118 854.902C442.354 871.373 451.765 887.451 462.354 901.961C472.942 916.863 485.099 930.589 498.824 942.745C538.824 978.824 592.942 1001.18 647.06 1001.18C702.746 999.608 723.922 970.196 710.981 916.079C709.02 907.451 705.883 898.432 701.569 890.981C699.216 887.843 705.099 884.314 707.452 888.236Z" fill="black"/>
<path d="M859.215 417.255C866.274 450.196 869.803 476.863 850.588 564.706C831.764 652.157 877.646 670.196 769.019 810.196C724.705 867.451 617.254 851.373 530.195 792.157C500.784 772.157 488.235 720.785 466.274 684.314C449.019 655.687 441.176 685.49 418.431 660.785C387.45 627.059 350.195 559.216 368.627 439.216C398.431 244.706 552.548 221.961 666.666 243.53C781.568 265.49 840.392 330.588 859.215 417.255Z" fill="white"/>
<path d="M438.038 695.686C429.019 680.392 417.254 667.059 406.274 652.941C395.685 638.432 387.058 622.353 379.999 605.883C333.333 491.373 351.372 330.196 465.882 262.745C513.333 235.294 570.587 228.628 623.921 232.941C738.038 241.177 842.744 293.726 867.45 414.51C880.784 467.843 862.744 522.745 852.548 574.902C847.842 600.785 851.764 627.451 851.372 654.118C850.98 681.177 843.529 708.235 833.333 733.334C827.058 750.588 816.078 765.882 804.705 780C785.882 802.745 767.058 825.883 743.136 843.53C737.646 847.451 727.842 849.412 721.176 850.196C702.744 852.941 684.705 853.726 666.274 852.549C594.117 849.412 516.862 814.51 487.842 744.706C486.666 741.961 490.587 740 492.156 742.353C529.803 801.961 598.823 831.373 667.45 835.294C688.627 836.471 710.195 836.079 730.98 831.765C741.176 826.667 750.195 817.647 758.823 809.412C779.999 788.235 801.568 765.49 816.862 739.608C835.293 704.706 845.489 666.667 842.352 627.059C841.568 609.412 841.176 590.981 844.705 573.334C847.842 555.686 851.764 538.824 854.117 520.785C856.47 503.53 857.646 485.883 857.646 468.628C855.685 418.039 839.215 365.883 807.058 326.667C736.078 238.432 568.235 215.294 473.725 275.686C414.117 312.549 386.274 381.569 377.254 448.628C363.529 529.02 367.45 608.235 431.372 666.667L450.195 686.275C457.646 694.902 444.313 705.098 438.038 695.686Z" fill="black"/>
<path d="M484.311 570.98C484.311 570.98 472.155 512.157 414.9 519.215C365.488 525.49 348.233 643.921 460.39 676.863" fill="white"/>
<path d="M455.293 625.49C446.274 620.392 439.999 611.765 439.607 601.177C439.999 593.334 441.175 584.314 439.215 576.471C438.038 569.02 430.195 567.059 424.313 567.451C418.038 568.628 414.117 576.471 412.94 582.745C412.94 583.137 412.548 584.314 412.548 584.706C412.156 586.667 409.019 586.667 408.234 584.706C403.136 569.412 414.509 552.549 430.979 554.51C454.117 556.079 457.254 580.392 452.94 598.824C450.587 606.667 453.725 613.726 458.038 620.392L458.823 621.569C460.783 623.922 457.646 627.059 455.293 625.49Z" fill="black"/>
<path d="M769.018 529.412C774.9 557.255 785.881 583.137 799.606 607.451C811.763 637.255 780.39 665.49 752.547 664.314C749.41 664.314 749.018 660 751.763 659.216C769.41 653.726 785.488 641.961 788.234 623.922C789.41 618.431 787.841 613.726 785.096 609.02C772.155 584.706 764.312 556.863 766.273 529.412C766.273 527.451 769.018 527.451 769.018 529.412Z" fill="black"/>
<path d="M482.352 571.373C473.332 548.236 453.725 526.275 427.45 526.667C425.097 526.275 421.176 527.059 418.823 527.059C412.156 527.451 406.666 529.804 401.568 534.51C376.47 559.608 380.783 603.922 401.176 631.765C408.234 641.569 417.254 650.196 427.45 657.255C437.646 664.314 449.019 669.804 461.176 674.51C463.921 675.294 462.744 679.608 459.999 679.216C433.725 673.726 408.627 660.785 391.372 639.216C364.705 607.059 359.215 553.334 390.979 521.961C398.038 515.687 407.842 510.981 417.646 510.981C420.783 510.981 425.489 510.196 428.627 510.981C445.097 511.765 460.783 520 470.979 532.941C479.999 543.922 485.097 557.255 486.666 570.589C486.666 572.941 483.136 573.726 482.352 571.373Z" fill="black"/>
<path d="M730.194 701.961C730.586 714.902 711.371 747.844 674.508 732.55C638.822 718.04 628.234 649.804 679.214 682.353C705.096 699.608 721.567 702.353 730.194 701.961Z" fill="white"/>
<path d="M738.43 702.353C727.841 705.883 717.645 702.746 707.841 699.216C693.332 694.118 681.567 684.706 667.841 678.04C649.018 669.02 641.567 681.177 646.665 698.824C651.763 717.648 668.234 734.118 688.626 734.902C706.665 736.863 725.881 720.393 724.312 701.961C722.743 694.118 734.116 691.765 736.077 699.216C735.685 712.55 727.449 721.961 718.822 729.804C701.567 743.922 675.292 740.785 658.038 727.844C644.704 717.255 633.724 700.393 636.077 682.353C636.861 674.51 644.312 665.491 652.547 665.099C671.763 663.53 683.136 676.471 698.038 685.099C709.802 691.765 723.136 700.001 736.861 698.824C739.214 698.04 740.783 701.177 738.43 702.353Z" fill="black"/>
<path d="M647.447 687.843C653.722 696.863 663.526 701.569 673.722 703.922C676.075 704.706 678.036 704.706 679.996 704.706C683.526 704.706 687.055 707.451 689.016 709.412C698.428 716.863 711.369 718.039 723.134 718.431C725.879 718.431 725.879 723.137 723.134 722.745C710.585 721.961 697.251 720.784 685.487 714.902C683.134 714.118 681.957 713.333 679.996 713.333C672.545 714.118 666.663 709.412 661.173 706.275C654.898 702.745 648.624 699.216 641.173 697.647C637.644 696.863 635.683 693.726 636.075 690.196C636.859 684.706 644.702 683.137 647.447 687.843Z" fill="black"/>
<path d="M641.176 541.569C641.176 541.961 641.176 542.353 641.176 542.353L640.784 553.334C640.392 562.746 632.549 569.804 623.137 569.412C613.725 569.02 606.666 560.785 607.451 551.765L607.843 540.785C607.843 538.824 608.627 536.471 609.411 534.902L640.784 536.471C640.784 538.04 641.176 539.608 641.176 541.569Z" fill="black"/>
<path d="M805.097 550.196L804.704 560.392C804.312 569.02 796.861 575.687 788.234 575.294C779.606 574.902 772.94 567.451 773.332 558.824L773.724 548.628C773.724 546.667 774.116 544.706 774.901 543.138L804.312 544.314C804.704 546.275 805.097 548.236 805.097 550.196Z" fill="black"/>
<path d="M680.39 487.843C689.018 489.02 695.685 480 692.547 471.373C690.979 466.667 688.234 462.353 683.92 459.608C670.587 451.373 620.783 450.589 594.508 469.412C570.979 486.667 641.175 482.353 680.39 487.843Z" fill="black"/>
<path d="M789.018 492.157C781.959 492.157 777.645 483.138 781.175 475.687C783.135 471.765 785.881 468.236 789.802 466.275C801.959 460.392 834.508 463.922 849.018 483.922C861.959 501.569 821.567 491.765 789.018 492.157Z" fill="black"/>
<path d="M666.271 541.569L601.565 540.392C593.722 540 594.114 528.235 601.958 528.628L666.663 533.333C672.154 533.726 671.761 541.569 666.271 541.569Z" fill="black"/>
<path d="M821.568 548.235L773.725 549.02C765.882 549.02 765.49 537.647 773.333 537.255C773.725 537.255 773.725 537.255 774.117 537.255L821.96 542.353C825.49 542.745 825.098 547.843 821.568 548.235Z" fill="black"/>
<path d="M871.099 238.217L871.103 238.218C972.625 266.613 985.832 390.674 919.772 443.529C901.186 458.146 882.945 460.867 866.005 456.804C849.006 452.726 833.227 441.792 819.708 428.933C806.2 416.083 795.02 401.378 787.212 389.874C783.309 384.124 780.254 379.18 778.174 375.675C777.135 373.923 776.339 372.531 775.805 371.578C775.537 371.101 775.335 370.735 775.2 370.488C775.133 370.365 775.082 370.272 775.049 370.209L775.011 370.14L775.002 370.123L775 370.119C775 370.118 775 370.118 774.993 370.122C774.967 370.135 774.837 370.204 774.179 370.556L774.999 370.118L774.919 369.967L774.793 369.852L774.133 370.572C774.452 370.224 774.616 370.044 774.702 369.951C774.793 369.851 774.792 369.851 774.792 369.851L774.789 369.848L774.778 369.838L774.736 369.8C774.7 369.767 774.646 369.719 774.576 369.656C774.436 369.531 774.229 369.348 773.958 369.113C773.416 368.645 772.621 367.971 771.598 367.145C769.554 365.493 766.6 363.23 762.953 360.782C755.668 355.89 745.578 350.226 734.426 347.221C723.269 344.214 710.977 343.852 699.385 349.677C687.792 355.502 677.066 367.43 668.871 388.66L668.87 388.661C655.789 422.634 629.711 461.595 597.175 487.205C564.649 512.806 525.85 524.947 487.11 505.771L485.577 505.012L485.668 506.72C485.85 510.133 486.042 513.478 486.229 516.738C486.851 527.559 487.419 537.447 487.382 545.78C487.358 551.198 487.076 555.913 486.398 559.766C485.906 562.564 485.213 564.849 484.298 566.605C482.38 560.08 477.641 547.775 468.146 537.176C457.417 525.199 440.633 515.433 415.17 518.616L415.164 518.617C402.815 520.236 392.505 528.5 385.545 540.415C378.585 552.332 374.923 567.973 375.864 584.567C377.749 617.8 398.095 654.91 447.484 673.875L447.505 673.883L447.526 673.89L459.999 678.048C461.191 681.645 461.616 686.366 461.488 692.055C461.354 697.973 460.625 704.852 459.597 712.465C458.88 717.769 458.018 723.433 457.115 729.362C455.673 738.829 454.129 748.971 452.914 759.398C452.858 759.206 452.801 759.009 452.743 758.808C451.703 755.234 450.142 750.157 448.052 744.133C443.874 732.091 437.578 716.248 429.108 701.081L429.106 701.079C423.837 691.711 416.742 681.874 408.866 670.955L408.605 670.592C400.613 659.512 391.811 647.285 383.206 633.204L383.19 633.178L383.172 633.153C357.716 596.731 319.049 528.719 321.391 454.542C323.151 399.213 337.125 363.602 350.604 341.851C357.346 330.972 363.97 323.549 368.894 318.855C371.357 316.508 373.394 314.843 374.81 313.768C375.518 313.231 376.07 312.841 376.442 312.588C376.628 312.461 376.769 312.369 376.861 312.309C376.883 312.295 376.902 312.283 376.918 312.273C376.937 312.261 376.952 312.251 376.964 312.243L376.988 312.229L376.992 312.226L376.992 312.226L376.993 312.225L377.335 312.016L377.437 311.626C393.204 251.48 443.444 212.659 501.608 195.371C559.785 178.079 625.675 182.402 672.456 208.326L672.459 208.328C696.052 221.304 714.433 228.015 730.22 231.177C746.014 234.341 759.16 233.942 772.246 232.761C775.64 232.455 779.029 232.096 782.461 231.733C805.442 229.302 830.337 226.668 871.099 238.217Z" fill="black" stroke="white" stroke-width="2"/>
<path d="M554.902 647.059C565.882 641.176 576.471 634.902 588.628 631.765C589.804 631.765 590.588 631.372 592.941 632.157C601.177 638.431 577.255 654.117 572.941 658.039C574.118 656.47 573.726 653.725 571.765 652.941C571.373 652.941 571.373 652.549 570.98 652.549C570.196 652.549 570.196 652.549 570.196 652.549C580 649.019 589.804 645.098 599.216 640.392C604.706 638.039 612.157 632.941 618.039 632.549C620.392 632.549 623.137 634.902 622.745 637.255C622.353 640.392 621.569 641.568 620.784 643.529C620 645.098 618.431 647.451 618.039 649.019C618.039 649.412 617.647 648.627 617.647 648.627C617.647 649.019 620 649.019 620.392 648.627C626.667 647.843 633.333 645.49 639.608 643.137C640.784 642.745 641.569 644.314 640.392 645.098C633.726 649.412 626.667 654.117 618.039 654.902C612.549 655.294 609.804 650.196 611.765 645.49C612.549 642.745 614.51 639.608 615.294 637.255C615.294 638.039 616.078 639.216 616.863 639.608C617.647 640 618.039 639.608 617.647 640C613.726 641.176 605.882 645.49 602.353 647.059C592.157 651.765 582.353 656.078 571.373 659.216C570.588 659.216 570.588 659.608 569.412 659.216C566.275 658.823 565.49 654.902 567.843 652.941C572.549 649.019 578.039 645.882 582.353 641.961C584.706 640 587.451 637.255 589.02 634.902C589.02 635.294 589.412 636.078 589.804 636.47C586.275 636.863 579.216 638.823 574.902 640.784C568.628 643.137 561.961 645.882 555.686 648.627C554.902 649.412 553.726 647.451 554.902 647.059Z" fill="black"/>
<path d="M809.02 647.059C812.549 643.137 827.451 624.313 831.373 634.117C831.373 634.902 831.373 635.686 831.373 636.078C829.804 643.921 824.706 650.588 820.784 657.255C821.569 655.294 820 652.549 818.039 652.157C817.255 652.157 816.863 652.157 816.471 652.157C816.078 652.157 816.471 652.157 816.863 651.764C824.706 646.666 830.588 640.392 838.431 634.902C840 634.117 841.961 632.941 843.922 634.117C845.882 635.686 845.49 638.039 844.706 639.608C843.922 641.568 843.137 643.137 842.353 645.098C841.961 645.49 841.569 645.882 840.784 645.49C840.392 645.49 840.392 645.098 840.392 644.706C840.392 643.921 840.392 638.823 840.392 638.039C840.392 637.647 840 637.255 840.392 638.039C840.392 638.431 841.177 639.215 841.961 639.215C842.353 639.215 843.137 639.215 843.137 639.215C836.471 647.059 828.627 654.51 819.608 659.608C816.863 660.784 813.726 658.431 814.118 655.294C814.118 654.902 814.51 654.117 814.902 653.725C817.647 649.804 820.784 645.882 823.137 641.961C824.314 640 825.882 637.255 826.275 635.294C826.275 636.078 827.843 637.255 828.235 636.862C821.961 639.215 816.471 644.314 810.98 648.235C809.412 649.412 808.235 647.843 809.02 647.059Z" fill="black"/>
<path d="M1130.2 330.588C1368.24 789.02 949.804 1306.27 450.981 1180C227.059 1124.31 47.0589 930.196 9.80403 702.353C-32.5489 475.686 69.804 232.157 261.177 103.922C523.53 -76.4706 887.059 -16.4706 1074.9 241.569C1076.08 242.745 1075.69 244.706 1074.12 245.882C1072.94 247.059 1070.98 246.667 1069.8 245.098C1043.92 211.765 1014.51 181.569 982.353 154.51C929.412 109.412 867.451 74.1176 801.961 50.196C468.628 -70.5883 102.745 130.196 29.804 478.823C-52.5489 869.412 279.608 1229.02 675.686 1175.29C981.177 1136.86 1208.24 854.902 1183.14 548.235C1177.65 474.118 1158.04 400.784 1125.49 333.333C1124.71 332.157 1125.49 330.588 1126.67 329.804C1127.84 329.02 1129.41 329.412 1130.2 330.588Z" fill="black"/>
</g>
</svg>
